<svg width="40" height="40" viewBox="0 0 40 40" fill="none" alt="request-friend" className="header__logo--requestfriend"><rect width="40" height="40" rx="20" fill="#E7E7E7"></rect><path d="M21.75 15.75C21.7501 16.7187 21.523 17.674 21.087 18.539C21.0404 18.6337 21.025 18.7407 21.043 18.8447C21.0609 18.9487 21.1113 19.0444 21.187 19.118C22.065 19.9989 23.2563 20.4958 24.5 20.5C25.7598 20.5 26.9679 19.9996 27.8587 19.1088C28.7495 18.218 29.25 17.0098 29.25 15.75C29.25 14.4902 28.7495 13.282 27.8587 12.3912C26.9679 11.5004 25.7598 11 24.5 11C23.2546 11.0029 22.0612 11.4999 21.182 12.382C21.1063 12.4556 21.0559 12.5513 21.038 12.6553C21.02 12.7593 21.0354 12.8663 21.082 12.961C21.5198 13.8256 21.7486 14.7809 21.75 15.75Z" fill="#1A1A1A"></path><path d="M24.5 21C23.6915 21.0003 22.8885 21.133 22.123 21.393C22.0427 21.4198 21.9705 21.4665 21.9133 21.5288C21.856 21.5911 21.8154 21.667 21.7955 21.7492C21.7755 21.8314 21.7767 21.9174 21.799 21.9991C21.8213 22.0807 21.864 22.1553 21.923 22.216C23.5736 23.8911 24.4993 26.1483 24.5 28.5C24.5 28.6326 24.5527 28.7598 24.6464 28.8536C24.7402 28.9473 24.8674 29 25 29H31.5C31.6326 29 31.7598 28.9473 31.8535 28.8536C31.9473 28.7598 32 28.6326 32 28.5C31.9979 26.5115 31.207 24.6051 29.801 23.199C28.3949 21.793 26.4885 21.0021 24.5 21Z" fill="#1A1A1A"></path><path d="M15.5 20.5C18.1234 20.5 20.25 18.3734 20.25 15.75C20.25 13.1266 18.1234 11 15.5 11C12.8766 11 10.75 13.1266 10.75 15.75C10.75 18.3734 12.8766 20.5 15.5 20.5Z" fill="#1A1A1A"></path><path d="M23 28.5C23 26.5109 22.2098 24.6032 20.8033 23.1967C19.3968 21.7902 17.4891 21 15.5 21C13.5109 21 11.6032 21.7902 10.1967 23.1967C8.79018 24.6032 8 26.5109 8 28.5C8 28.6326 8.05268 28.7598 8.14645 28.8536C8.24021 28.9473 8.36739 29 8.5 29H22.5C22.6326 29 22.7598 28.9473 22.8536 28.8536C22.9473 28.7598 23 28.6326 23 28.5Z" fill="#1A1A1A"></path></svg>
