<svg width="24" height="24" viewBox="0 0 24 24" fill="none" xmlns="http://www.w3.org/2000/svg">
<path d="M22 10H20.769C20.5441 9.01293 20.1532 8.07121 19.613 7.215L20.485 6.343C20.8493 5.9658 21.0509 5.46059 21.0463 4.9362C21.0418 4.4118 20.8315 3.91018 20.4606 3.53936C20.0898 3.16855 19.5882 2.95821 19.0638 2.95365C18.5394 2.9491 18.0342 3.15068 17.657 3.515L16.785 4.387C15.9288 3.84681 14.9871 3.45592 14 3.231V2C14 1.46957 13.7893 0.960859 13.4142 0.585786C13.0391 0.210714 12.5304 0 12 0C11.4696 0 10.9609 0.210714 10.5858 0.585786C10.2107 0.960859 10 1.46957 10 2V3.231C9.01293 3.45592 8.07121 3.84681 7.215 4.387L6.343 3.515C5.9658 3.15068 5.46059 2.9491 4.9362 2.95365C4.4118 2.95821 3.91018 3.16855 3.53936 3.53936C3.16855 3.91018 2.95821 4.4118 2.95365 4.9362C2.9491 5.46059 3.15068 5.9658 3.515 6.343L4.387 7.215C3.84681 8.07121 3.45592 9.01293 3.231 10H2C1.46957 10 0.960859 10.2107 0.585786 10.5858C0.210714 10.9609 0 11.4696 0 12C0 12.5304 0.210714 13.0391 0.585786 13.4142C0.960859 13.7893 1.46957 14 2 14H3.231C3.45592 14.9871 3.84681 15.9288 4.387 16.785L3.515 17.657C3.15068 18.0342 2.9491 18.5394 2.95365 19.0638C2.95821 19.5882 3.16855 20.0898 3.53936 20.4606C3.91018 20.8315 4.4118 21.0418 4.9362 21.0463C5.46059 21.0509 5.9658 20.8493 6.343 20.485L7.215 19.613C8.07121 20.1532 9.01293 20.5441 10 20.769V22C10 22.5304 10.2107 23.0391 10.5858 23.4142C10.9609 23.7893 11.4696 24 12 24C12.5304 24 13.0391 23.7893 13.4142 23.4142C13.7893 23.0391 14 22.5304 14 22V20.769C14.9871 20.5441 15.9288 20.1532 16.785 19.613L17.657 20.485C18.0342 20.8493 18.5394 21.0509 19.0638 21.0463C19.5882 21.0418 20.0898 20.8315 20.4606 20.4606C20.8315 20.0898 21.0418 19.5882 21.0463 19.0638C21.0509 18.5394 20.8493 18.0342 20.485 17.657L19.613 16.785C20.1532 15.9288 20.5441 14.9871 20.769 14H22C22.5304 14 23.0391 13.7893 23.4142 13.4142C23.7893 13.0391 24 12.5304 24 12C24 11.4696 23.7893 10.9609 23.4142 10.5858C23.0391 10.2107 22.5304 10 22 10ZM12 16C11.2089 16 10.4355 15.7654 9.77772 15.3259C9.11992 14.8864 8.60723 14.2616 8.30448 13.5307C8.00173 12.7998 7.92252 11.9956 8.07686 11.2196C8.2312 10.4437 8.61216 9.73098 9.17157 9.17157C9.73098 8.61216 10.4437 8.2312 11.2196 8.07686C11.9956 7.92252 12.7998 8.00173 13.5307 8.30448C14.2616 8.60723 14.8864 9.11992 15.3259 9.77772C15.7654 10.4355 16 11.2089 16 12C16 13.0609 15.5786 14.0783 14.8284 14.8284C14.0783 15.5786 13.0609 16 12 16Z" fill="url(#paint0_linear)"/>
<defs>
<linearGradient id="paint0_linear" x1="0.499999" y1="6.63723e-07" x2="24" y2="24" gradientUnits="userSpaceOnUse">
<stop stop-color="#EDA355"/>
<stop offset="1" stop-color="#CC7D38"/>
</linearGradient>
</defs>
</svg>
