<svg width="24" height="24" viewBox="0 0 24 24" fill="none" xmlns="http://www.w3.org/2000/svg">
<g clip-path="url(#clip0)">
<path d="M16.1 13.072C16.1411 13.0312 16.1667 12.9773 16.1724 12.9196C16.1781 12.8619 16.1634 12.804 16.131 12.756C15.482 11.796 13.789 11.172 11.497 10.329L10.87 10.1C10.7951 10.0121 10.7472 9.90446 10.732 9.79C10.6395 9.35887 10.6595 8.91118 10.79 8.49C11.3221 7.91298 11.7274 7.23091 11.9799 6.48773C12.2324 5.74455 12.3265 4.95673 12.256 4.175C12.256 1.756 10.677 0 8.5 0C6.323 0 4.744 1.756 4.744 4.174C4.67348 4.95218 4.76659 5.73651 5.01735 6.47655C5.26811 7.2166 5.67096 7.89597 6.2 8.471C6.34397 8.89513 6.36921 9.35056 6.273 9.788C6.25754 9.90123 6.21079 10.0079 6.138 10.096L5.507 10.329C3.06 11.229 1.292 11.878 0.753 12.955C0.26867 14.0748 0.0126714 15.28 0 16.5C0 16.6326 0.0526784 16.7598 0.146447 16.8536C0.240215 16.9473 0.367392 17 0.5 17H12.069C12.1019 17.0001 12.1344 16.9937 12.1648 16.9812C12.1952 16.9687 12.2228 16.9502 12.246 16.927L16.1 13.072Z" fill="url(#paint0_linear)"/>
<path fill-rule="evenodd" clip-rule="evenodd" d="M21.378 11.0002C22.0716 11.0002 22.7369 11.2753 23.228 11.765C23.4717 12.0081 23.6651 12.2969 23.7972 12.6148C23.9293 12.9327 23.9975 13.2734 23.9979 13.6177C23.9983 13.9619 23.9308 14.3029 23.7994 14.621C23.668 14.9392 23.4752 15.2284 23.232 15.472L16.553 22.151C16.5062 22.1977 16.4427 22.224 16.3765 22.224C16.3104 22.224 16.2469 22.1977 16.2 22.151L12.85 18.797C12.8033 18.7501 12.7771 18.6867 12.7771 18.6205C12.7771 18.5543 12.8033 18.4909 12.85 18.444L19.528 11.765C20.0192 11.2753 20.6844 11.0002 21.378 11.0002ZM11.9463 20.0658C11.9902 20.0769 12.0303 20.0998 12.0621 20.132L14.8721 22.94C14.9043 22.9718 14.9272 23.0118 14.9383 23.0557C14.9494 23.0996 14.9483 23.1457 14.9351 23.189C14.9219 23.2323 14.8973 23.2712 14.8639 23.3017C14.8304 23.3321 14.7894 23.353 14.7451 23.362L11.6021 23.99C11.5692 23.997 11.5357 24.0003 11.5021 24C11.4279 24 11.3547 23.9836 11.2877 23.9518C11.2207 23.92 11.1616 23.8737 11.1147 23.8163C11.0678 23.7589 11.0342 23.6917 11.0165 23.6197C10.9987 23.5477 10.9972 23.4727 11.0121 23.4L11.6401 20.259C11.6493 20.2148 11.6702 20.1738 11.7006 20.1404C11.7311 20.107 11.7699 20.0824 11.8131 20.069C11.8564 20.0558 11.9025 20.0547 11.9463 20.0658Z" fill="url(#paint1_linear)"/>
</g>
<defs>
<linearGradient id="paint0_linear" x1="8.0868" y1="0" x2="8.0868" y2="17" gradientUnits="userSpaceOnUse">
<stop stop-color="#90EA64"/>
<stop offset="1" stop-color="#6FBE49"/>
</linearGradient>
<linearGradient id="paint1_linear" x1="21.8572" y1="11.1429" x2="12.4286" y2="24" gradientUnits="userSpaceOnUse">
<stop stop-color="#56D0D0"/>
<stop offset="1" stop-color="#44BABA"/>
</linearGradient>
<clipPath id="clip0">
<path d="M0 0H24V24H0V0Z" fill="white"/>
</clipPath>
</defs>
</svg>
