<svg width="24" height="24" viewBox="0 0 24 24" fill="none" xmlns="http://www.w3.org/2000/svg">
<path d="M23.8918 8.4403C23.7602 8.04119 23.5173 7.6861 23.1908 7.41506C22.8642 7.14402 22.4669 6.96783 22.0436 6.90635L16.5201 6.12519L14.0426 1.24105C13.853 0.868227 13.5612 0.554589 13.1998 0.335362C12.8385 0.116135 12.422 0 11.997 0C11.5721 0 11.1555 0.116135 10.7942 0.335362C10.4328 0.554589 10.141 0.868227 9.95143 1.24105L7.4815 6.12369L1.95959 6.90635C1.5383 6.96797 1.14274 7.14302 0.816948 7.41201C0.491159 7.681 0.247941 8.03335 0.114382 8.42984C-0.019745 8.82851 -0.0362721 9.2562 0.066704 9.66367C0.16968 10.0711 0.387971 10.4418 0.696438 10.733L4.6855 14.5208L3.74233 19.8754C3.67048 20.2871 3.71742 20.7102 3.87787 21.0971C4.03831 21.4839 4.30587 21.8191 4.65034 22.0649C4.99481 22.3106 5.40249 22.457 5.82737 22.4877C6.25224 22.5183 6.6774 22.432 7.05487 22.2384L11.9993 19.7052L16.9483 22.2443C17.326 22.4382 17.7515 22.5247 18.1767 22.4939C18.6019 22.4632 19.0099 22.3165 19.3545 22.0703C19.6991 21.8242 19.9666 21.4885 20.1268 21.1012C20.2869 20.7138 20.3334 20.2903 20.2608 19.8784L19.3131 14.5223L23.3021 10.733C23.6088 10.4428 23.8265 10.0743 23.9307 9.66911C24.0349 9.26397 24.0214 8.83834 23.8918 8.4403Z" fill="url(#paint0_linear)"/>
<defs>
<linearGradient id="paint0_linear" x1="12" y1="0" x2="12" y2="22.5" gradientUnits="userSpaceOnUse">
<stop stopColor="#B942A1"/>
<stop offset="1" stopColor="#7247D7"/>
</linearGradient>
</defs>
</svg>
