<svg width="20" height="20" viewBox="0 0 20 20" fill="none" xmlns="http://www.w3.org/2000/svg">
<path d="M7.60005 17.8009C7.60005 16.2401 7.60004 16.7201 7.60004 18.1601L8.75365 18.8153C9.18215 18.9378 9.62561 19 10.0713 19.0001H13.9793C15.1692 19.0001 16.3168 18.5582 17.1993 17.7599C18.0818 16.9617 18.6363 15.8641 18.7553 14.6801L18.9953 10.6001C19.0378 9.76724 18.7898 8.9455 18.2937 8.2752C17.7976 7.6049 17.0842 7.12761 16.2753 6.92484L15.1113 6.67044C14.8511 6.60594 14.6201 6.45619 14.4549 6.24509C14.2898 6.03398 14.2001 5.77366 14.2001 5.50563V2.80001C14.2001 2.32262 14.0104 1.86478 13.6729 1.52721C13.3353 1.18964 12.8775 1 12.4001 1C11.9227 1 11.4648 1.18964 11.1273 1.52721C10.7897 1.86478 10.6001 2.32262 10.6001 2.80001V4.04322C10.6001 5.63453 10.8384 6.04498 10.4801 7.12004C10.0001 8.56006 9.19136 10.0433 7.60005 10.0433V17.8009Z" fill="#6FBE44" stroke="#6FBE44" stroke-width="1.5" stroke-linecap="round" stroke-linejoin="round"/>
<path d="M4.60003 8.20007H1V19.0002H4.60003V8.20007Z" fill="#6FBE44" stroke="#6FBE44" stroke-width="1.5" stroke-linecap="round" stroke-linejoin="round"/>
</svg>
