<svg width="18" height="18" viewBox="0 0 18 18" fill="none" xmlns="http://www.w3.org/2000/svg">
<rect width="18" height="18" rx="9" fill="#6FBE44"/>
<path d="M6.83667 13.0629C6.83667 12.457 6.83667 12.8047 6.83667 13.1588L8.35084 13.5912C8.57401 13.655 8.80498 13.6874 9.03709 13.6875H11.0725C11.6923 13.6875 12.2899 13.4573 12.7496 13.0416C13.2092 12.6258 13.498 12.0542 13.56 11.4375L13.685 9.3125C13.7071 8.87874 13.5779 8.45075 13.3196 8.10164C13.0612 7.75253 12.6896 7.50394 12.2683 7.39833L11.6621 7.26583C11.5266 7.23224 11.4062 7.15425 11.3202 7.0443C11.2342 6.93435 11.1875 6.79876 11.1875 6.65917V5.25C11.1875 5.00136 11.0887 4.7629 10.9129 4.58709C10.7371 4.41127 10.4986 4.3125 10.25 4.3125C10.0014 4.3125 9.76291 4.41127 9.58709 4.58709C9.41128 4.7629 9.3125 5.00136 9.3125 5.25V5.8975C9.3125 6.7263 8.98326 7.52116 8.39721 8.10721C7.81116 8.69326 7.66547 9.0225 6.83667 9.0225V13.0629Z" fill="white"/>
<path d="M6.1875 8.0625H4.3125V13.6875H6.1875V8.0625Z" fill="white"/>
</svg>
