<svg width="130" height="40" viewBox="0 0 130 40" fill="none" xmlns="http://www.w3.org/2000/svg">
<path d="M83.1111 0C79.5278 0 76.25 1.30556 73.75 3.47222V0H68.75V14.3611V37.5H73.75V25.2778C76.2778 27.4444 79.5556 28.75 83.1111 28.75C91.0556 28.75 97.5 22.3056 97.5 14.3611C97.5 6.44445 91.0556 0 83.1111 0ZM83.1111 23.7222C77.9444 23.7222 73.75 19.5278 73.75 14.3611C73.75 9.19444 77.9444 5 83.1111 5C88.2778 5 92.4722 9.19444 92.4722 14.3611C92.4722 19.5278 88.2778 23.7222 83.1111 23.7222Z" fill="#6FBE49"/>
<path d="M57.5 0V3.47222C54.9722 1.30556 51.6944 0 48.1111 0C40.1666 0 33.7222 6.44444 33.7222 14.3889C33.7222 22.3333 40.1666 28.7778 48.1111 28.7778C51.6944 28.7778 54.9722 27.4722 57.5 25.3056V28.7778H62.5V0H57.5ZM48.1111 23.7222C42.9444 23.7222 38.7499 19.5278 38.7499 14.3611C38.7499 9.19444 42.9444 5 48.1111 5C53.2777 5 57.4722 9.19444 57.4722 14.3611C57.4722 19.5278 53.2777 23.7222 48.1111 23.7222Z" fill="#6FBE49"/>
<path d="M115.611 0C107.667 0 101.222 6.44444 101.222 14.3889C101.222 22.3333 107.667 28.7778 115.611 28.7778C123.556 28.7778 130 22.3056 130 14.3889C130 6.44444 123.556 0 115.611 0ZM115.611 23.7222C110.445 23.7222 106.25 19.5278 106.25 14.3611C106.25 9.19444 110.445 5 115.611 5C120.778 5 124.972 9.19444 124.972 14.3611C124.972 19.5278 120.778 23.7222 115.611 23.7222Z" fill="#6FBE49"/>
<path d="M28.75 14.3889C28.75 14.1389 28.75 13.8611 28.7222 13.6111V0H23.7222V3.47222C21.2222 1.30556 17.9444 0 14.3889 0C6.44444 0 0 6.44444 0 14.3889C0 22.3333 6.44444 28.7778 14.3889 28.7778C17.9722 28.7778 21.25 27.4722 23.7778 25.2778V26.6111C23.7778 29.3056 23.0278 31.4167 21.5278 33C19.9722 34.6111 17.9444 35.3889 15.25 35.3889C11.0833 35.3889 8.25 33.6389 6.61111 30.0278H1.25C2.19444 33.1667 3.94444 35.6667 6.52778 37.4444C9 39.1389 11.9444 40 15.2778 40C19.9722 40 23.6667 38.2778 26.2222 34.8889C27.2778 33.5278 28 31.8889 28.3611 30.0556C28.5 29.3056 28.6111 28.4444 28.6667 27.5278C28.6944 27.1944 28.6944 26.8333 28.7222 25V15.1389C28.75 14.8889 28.75 14.6389 28.75 14.3889ZM14.3889 23.7222C9.22222 23.7222 5.02778 19.5278 5.02778 14.3611C5.02778 9.19444 9.22222 5 14.3889 5C19.5556 5 23.75 9.19444 23.75 14.3611C23.7222 19.5278 19.5278 23.7222 14.3889 23.7222Z" fill="#6FBE49"/>
</svg>
